<svg width="782" height="782" xmlns="http://www.w3.org/2000/svg" xmlns:xlink="http://www.w3.org/1999/xlink" xml:space="preserve" overflow="hidden"><defs><clipPath id="clip0"><rect x="1247" y="158" width="782" height="782"/></clipPath></defs><g clip-path="url(#clip0)" transform="translate(-1247 -158)"><path d="M1916 821 1520 752.801 1520 191 1916 259.199Z" stroke="#542FD4" stroke-width="45.8333" stroke-miterlimit="8" fill="#F2F2F2" fill-rule="evenodd"/><path d="M1467 339C1417.29 339 1377 304.078 1377 261 1377 217.922 1417.29 183 1467 183 1516.71 183 1557 217.922 1557 261 1557 304.078 1516.71 339 1467 339Z" stroke="#542FD4" stroke-width="45.8333" stroke-miterlimit="8" fill="#F2F2F2" fill-rule="evenodd"/><path d="M1884 839 1488 770.801 1488 209 1884 277.199Z" fill="#F2F2F2" fill-rule="evenodd"/><path d="M0 69.0001 75.0303 0 633 0 557.97 69.0001Z" fill="#D9D9D9" fill-rule="evenodd" transform="matrix(6.12323e-17 1 1 -6.12323e-17 1825 278)"/><path d="M1827 911 1377 833.501 1377 281 1827 358.499Z" stroke="#542FD4" stroke-width="45.8333" stroke-miterlimit="8" fill="#542FD4" fill-rule="evenodd"/><path d="M1574.1 624.543C1574.1 650.226 1574.1 675.909 1574.1 701.592 1580.84 702.918 1587.58 704.244 1594.31 705.57 1607.23 708.113 1616.53 707.132 1622.21 702.626 1627.78 698.098 1630.56 688.71 1630.56 674.462 1630.56 661.152 1628.05 650.817 1623.04 643.457 1618.03 636.284 1608.34 631.283 1593.98 628.456 1587.35 627.151 1580.73 625.847 1574.1 624.543ZM1574.1 481.974C1574.1 505.782 1574.1 529.591 1574.1 553.399 1580.73 554.703 1587.35 556.008 1593.98 557.312 1607.45 559.964 1616.31 558.426 1620.54 552.698 1624.55 546.926 1626.55 538.697 1626.55 528.011 1626.55 518.825 1624.71 510.215 1621.04 502.18 1617.36 494.146 1607.29 488.506 1590.81 485.262 1585.24 484.166 1579.67 483.07 1574.1 481.974ZM1464.03 374.539C1511.35 383.855 1558.68 393.172 1606.01 402.488 1633.85 407.968 1655.39 414.928 1670.65 423.368 1685.68 431.951 1697.49 445.429 1706.06 463.801 1714.63 482.549 1718.92 503.264 1718.92 525.948 1718.92 548.069 1714.86 564.891 1706.73 576.413 1698.38 588.267 1688.24 595.646 1676.33 598.549 1692.7 610.02 1705.28 625.245 1714.08 644.224 1722.99 663.599 1727.44 684.254 1727.44 706.188 1727.44 732.433 1722.43 753.755 1712.41 770.154 1702.39 786.366 1688.63 795.562 1671.15 797.745 1653.89 800.159 1628.67 798.099 1595.48 791.567 1551.66 782.941 1507.85 774.315 1464.03 765.689 1464.03 734.476 1464.03 703.263 1464.03 672.049 1470.76 673.376 1477.5 674.702 1484.24 676.028 1484.24 608.071 1484.24 540.114 1484.24 472.157 1477.5 470.831 1470.76 469.505 1464.03 468.179 1464.03 436.965 1464.03 405.752 1464.03 374.539Z" fill="#F2F2F2" fill-rule="evenodd"/><text fill="#000000" fill-opacity="0" font-family="Arial,Arial_MSFontService,sans-serif" font-size="424.183" x="1464.03" y="745.699">B</text></g></svg>