<svg xmlns="http://www.w3.org/2000/svg" xml:space="preserve" width="782" height="782" overflow="hidden"><defs><clipPath id="a"><path d="M1247 158h782v782h-782z"/></clipPath></defs><g clip-path="url(#a)" transform="translate(-1247 -158)"><path fill="#F2F2F2" fill-rule="evenodd" stroke="#542FD4" stroke-miterlimit="8" stroke-width="46" d="m1916 821-396-68V191l396 68Z"/><path fill="#F2F2F2" fill-rule="evenodd" stroke="#542FD4" stroke-miterlimit="8" stroke-width="46" d="M1467 339c-50 0-90-35-90-78s40-78 90-78 90 35 90 78-40 78-90 78Z"/><path fill="#F2F2F2" fill-rule="evenodd" d="m1884 839-396-68V209l396 68Z"/><path fill="#D9D9D9" fill-rule="evenodd" d="m1894 278-69 75v558l69-75Z"/><path fill="#542FD4" fill-rule="evenodd" stroke="#542FD4" stroke-miterlimit="8" stroke-width="46" d="m1827 911-450-77V281l450 77Z"/><path fill="#F2F2F2" fill-rule="evenodd" d="M1574 625v77l20 4c13 2 23 1 28-3 6-5 9-14 9-29 0-13-3-23-8-31-5-7-15-12-29-15l-20-3Zm0-143v71l20 4c13 3 22 1 27-4 4-6 6-14 6-25 0-9-2-18-6-26s-14-13-30-17l-17-3Zm-110-107 142 27c28 6 49 13 65 21 15 9 26 22 35 41s13 39 13 62c0 22-4 39-12 50-9 12-19 20-31 23 17 11 29 26 38 45 9 20 13 40 13 62 0 26-5 48-15 64a55 55 0 0 1-41 28c-17 2-42 0-76-6l-131-26v-94l20 4V472l-20-4v-93Z"/><text x="1464" y="746" fill-opacity="0" font-family="Arial,Arial_MSFontService,sans-serif" font-size="424">B</text></g></svg>