<svg xmlns="http://www.w3.org/2000/svg" xml:space="preserve" overflow="hidden" viewBox="0 0 782 782"><defs><clipPath id="a"><path d="M197 187h782v782H197z"/></clipPath></defs><g clip-path="url(#a)" transform="translate(-197 -187)"><path fill="#F2F2F2" fill-rule="evenodd" stroke="#682A7B" stroke-miterlimit="8" stroke-width="45.8" d="m866 850-396-68V220l396 68Z"/><path fill="#F2F2F2" fill-rule="evenodd" stroke="#682A7B" stroke-miterlimit="8" stroke-width="45.8" d="M417 368c-50 0-90-35-90-78s40-78 90-78 90 35 90 78-40 78-90 78Z"/><path fill="#F2F2F2" fill-rule="evenodd" d="m833 868-395-68V238l395 68Z"/><path fill="#D9D9D9" fill-rule="evenodd" d="m844 307-69 75v558l69-75Z"/><path fill="#682A7B" fill-rule="evenodd" stroke="#682A7B" stroke-miterlimit="8" stroke-width="45.8" d="m777 940-450-77V310l450 77Z"/><path fill="#F2F2F2" fill-rule="evenodd" d="M524 654v77l20 4c13 2 22 1 28-3 6-5 8-14 8-28s-2-24-7-31-15-12-29-15l-20-4Zm0-143v72l20 4c13 2 22 1 26-5s6-14 6-25c0-9-1-18-5-26s-14-13-30-16l-17-4ZM414 404l142 28c28 5 49 12 65 21 15 8 26 22 35 40 9 19 13 40 13 62s-4 39-12 51c-9 12-19 19-31 22 17 11 29 26 38 45 9 20 13 41 13 62 0 27-5 48-15 64a55 55 0 0 1-41 28c-17 2-42 0-76-6l-131-26v-94l20 4V501l-20-4v-93Z"/><text x="414" y="775" fill-opacity="0" font-family="Arial,Arial_MSFontService,sans-serif" font-size="424.2">B</text></g></svg>